<svg width="121" height="33" viewBox="0 0 121 33" fill="none" xmlns="http://www.w3.org/2000/svg">
<path fill-rule="evenodd" clip-rule="evenodd" d="M34.6994 25H40.1394V13.576C40.1394 12.8053 40.0714 12.0177 39.9354 11.213C39.7994 10.4083 39.533 9.683 39.1364 9.03699C38.7397 8.39099 38.173 7.85833 37.4364 7.43899C36.6997 7.01966 35.7307 6.80999 34.5294 6.80999C33.2374 6.80999 32.053 7.09899 30.9764 7.67699C29.8997 8.255 29.0327 9.07665 28.3754 10.142V0.179993H22.9354V25H28.3754V14.766C28.534 14.29 28.7607 13.8593 29.0554 13.474C29.35 13.0887 29.673 12.7543 30.0244 12.471C30.3757 12.1877 30.7384 11.9723 31.1124 11.825C31.4864 11.6777 31.832 11.604 32.1494 11.604C32.9427 11.604 33.566 11.876 34.0194 12.42C34.4727 12.964 34.6994 13.814 34.6994 14.97V25ZM16.0013 7.42199C16.4093 7.67133 16.6472 7.84133 16.7153 7.93199L19.1632 3.30799C18.6192 2.99066 18.0243 2.67333 17.3783 2.35599C16.7322 2.03866 16.0353 1.75533 15.2872 1.50599C14.5392 1.25666 13.7573 1.05266 12.9412 0.893993C12.1252 0.735325 11.2979 0.655993 10.4593 0.655993C9.25791 0.655993 8.11892 0.825991 7.04225 1.16599C5.96558 1.50599 5.01925 2.01032 4.20325 2.67899C3.38725 3.34766 2.74125 4.16932 2.26525 5.14399C1.78925 6.11866 1.55125 7.24065 1.55125 8.50999C1.55125 9.41666 1.68158 10.21 1.94225 10.89C2.20292 11.57 2.59958 12.1707 3.13225 12.692C3.66492 13.2133 4.33925 13.6723 5.15525 14.069C5.97125 14.4657 6.93458 14.834 8.04525 15.174C8.38072 15.2737 8.70621 15.3698 9.02173 15.4623L10.7232 15.9574C11.2915 16.1321 11.7928 16.3187 12.2273 16.517C12.7486 16.755 13.1566 17.0213 13.4513 17.316C13.7459 17.6107 13.8933 17.9847 13.8933 18.438C13.8933 19.6393 12.9073 20.24 10.9353 20.24C10.0059 20.24 9.08792 20.1153 8.18125 19.866C7.27458 19.6167 6.45292 19.3333 5.71625 19.016C4.97958 18.6987 4.36192 18.3813 3.86325 18.064C3.36458 17.7467 3.06992 17.5313 2.97925 17.418L0.53125 22.28C1.23392 22.756 1.99891 23.1753 2.82625 23.538C3.65359 23.9007 4.50925 24.2123 5.39325 24.473C6.27725 24.7337 7.18391 24.932 8.11325 25.068C9.04259 25.204 9.94925 25.272 10.8333 25.272C11.9893 25.272 13.1112 25.1417 14.1993 24.881C15.2873 24.6203 16.2506 24.201 17.0893 23.623C17.9279 23.045 18.6022 22.2857 19.1122 21.345C19.6223 20.4043 19.8773 19.254 19.8773 17.894C19.8773 16.7833 19.7016 15.8313 19.3503 15.038C18.9989 14.2447 18.5003 13.5703 17.8542 13.015C17.2082 12.4597 16.4206 11.995 15.4913 11.621C14.5619 11.247 13.5193 10.9013 12.3632 10.584C12.0837 10.5084 11.8155 10.4354 11.5586 10.3649L10.1532 9.97199C9.51858 9.79066 8.99159 9.59233 8.57225 9.37699C8.15292 9.16166 7.83558 8.91799 7.62025 8.64599C7.40492 8.37399 7.29725 8.03399 7.29725 7.62599C7.29725 6.28865 8.29457 5.61999 10.2893 5.61999C11.0146 5.61999 11.7399 5.72199 12.4653 5.92599C13.1906 6.12999 13.8592 6.36799 14.4712 6.63999C15.0833 6.91199 15.5932 7.17266 16.0013 7.42199ZM52.4795 25.34C50.9608 25.34 49.6065 25.0907 48.4165 24.592C47.2265 24.0933 46.2235 23.419 45.4075 22.569C44.5915 21.719 43.9738 20.733 43.5545 19.611C43.1351 18.489 42.9255 17.316 42.9255 16.092C42.9255 14.868 43.1351 13.695 43.5545 12.573C43.9738 11.451 44.5915 10.465 45.4075 9.61499C46.2235 8.76499 47.2265 8.085 48.4165 7.57499C49.6065 7.06499 50.9608 6.80999 52.4795 6.80999C53.9981 6.80999 55.3468 7.06499 56.5255 7.57499C57.7041 8.085 58.7015 8.76499 59.5175 9.61499C60.3335 10.465 60.9568 11.451 61.3875 12.573C61.8181 13.695 62.0335 14.868 62.0335 16.092C62.0335 17.316 61.8238 18.489 61.4045 19.611C60.9851 20.733 60.3675 21.719 59.5515 22.569C58.7355 23.419 57.7325 24.0933 56.5425 24.592C55.3525 25.0907 53.9981 25.34 52.4795 25.34ZM49.6235 19.475C48.8755 18.625 48.5015 17.4973 48.5015 16.092C48.5015 15.412 48.6035 14.783 48.8075 14.205C49.0115 13.627 49.2891 13.134 49.6405 12.726C49.9918 12.318 50.4111 12.0007 50.8985 11.774C51.3858 11.5473 51.9128 11.434 52.4795 11.434C53.6128 11.434 54.5535 11.859 55.3015 12.709C56.0495 13.559 56.4235 14.6867 56.4235 16.092C56.4235 16.772 56.3215 17.401 56.1175 17.979C55.9135 18.557 55.6358 19.05 55.2845 19.458C54.9331 19.866 54.5195 20.1833 54.0435 20.41C53.5675 20.6367 53.0461 20.75 52.4795 20.75C51.3235 20.75 50.3715 20.325 49.6235 19.475ZM76.2776 11.808C74.9629 11.8307 73.7729 12.046 72.7076 12.454C71.6422 12.862 70.8716 13.474 70.3956 14.29V25H64.9556V7.14999H69.9536V10.754C70.5656 9.55265 71.3532 8.612 72.3166 7.93199C73.2799 7.25199 74.3056 6.90066 75.3936 6.87799H75.9376C76.0509 6.87799 76.1642 6.88933 76.2776 6.91199V11.808ZM87.7847 24.932C88.748 24.66 89.6037 24.3653 90.3517 24.048L89.2977 19.73C88.9804 19.8887 88.6064 20.036 88.1757 20.172C87.745 20.308 87.3257 20.376 86.9177 20.376C86.4644 20.376 86.0904 20.2457 85.7957 19.985C85.501 19.7243 85.3537 19.2993 85.3537 18.71V11.264H88.9917V7.14999H85.3537V1.47199H79.9137V7.14999H77.6357V11.264H79.9137V20.58C79.9137 21.4413 80.044 22.178 80.3047 22.79C80.5654 23.402 80.9224 23.895 81.3757 24.269C81.829 24.643 82.356 24.915 82.9567 25.085C83.5574 25.255 84.1977 25.34 84.8777 25.34C85.8524 25.34 86.8214 25.204 87.7847 24.932ZM92.6278 0.179993H98.0678V18.642C98.0678 20.002 98.6458 20.682 99.8018 20.682C100.074 20.682 100.374 20.6423 100.703 20.563C101.031 20.4837 101.332 20.3647 101.604 20.206L102.318 24.286C101.638 24.6033 100.856 24.8527 99.9718 25.034C99.0878 25.2153 98.2605 25.306 97.4898 25.306C95.9258 25.306 94.7245 24.898 93.8858 24.082C93.0471 23.266 92.6278 22.0873 92.6278 20.546V0.179993ZM105.359 28.026C104.962 27.958 104.537 27.8447 104.084 27.686V32.344C104.56 32.5253 105.03 32.6557 105.495 32.735C105.96 32.8143 106.419 32.854 106.872 32.854C108.549 32.854 110 32.395 111.224 31.477C112.448 30.559 113.298 29.3633 113.774 27.89L120.574 7.14999H115.474L111.904 20.342L107.756 7.14999H102.146L108.946 25C108.651 26.1787 108.323 26.9947 107.96 27.448C107.597 27.9013 107.087 28.128 106.43 28.128C106.113 28.128 105.756 28.094 105.359 28.026Z" fill="white"/>
</svg>
