<svg xmlns="http://www.w3.org/2000/svg" width="121" height="33" fill="none"><path fill="#34313D" fill-rule="evenodd" d="M34.7 25h5.44V13.576c0-.77-.069-1.558-.205-2.363a6.038 6.038 0 0 0-.799-2.176c-.396-.646-.963-1.179-1.7-1.598-.736-.42-1.705-.63-2.907-.63-1.292 0-2.476.29-3.553.868a6.785 6.785 0 0 0-2.6 2.465V.18h-5.44V25h5.44V14.766a4.4 4.4 0 0 1 .68-1.292c.294-.385.617-.72.968-1.003a4.176 4.176 0 0 1 1.088-.646c.374-.147.72-.221 1.037-.221.794 0 1.417.272 1.87.816.454.544.68 1.394.68 2.55V25ZM16 7.422c.408.25.646.42.714.51l2.448-4.624a28.4 28.4 0 0 0-1.785-.952 16.76 16.76 0 0 0-2.09-.85c-.749-.25-1.53-.453-2.347-.612A12.973 12.973 0 0 0 10.46.656c-1.201 0-2.34.17-3.417.51a8.435 8.435 0 0 0-2.839 1.513 7.266 7.266 0 0 0-1.938 2.465c-.476.975-.714 2.097-.714 3.366 0 .907.13 1.7.391 2.38.26.68.658 1.28 1.19 1.802.533.521 1.207.98 2.023 1.377.816.397 1.78.765 2.89 1.105.336.1.661.196.977.288l1.701.495c.568.175 1.07.362 1.504.56.522.238.93.504 1.224.799.295.295.442.669.442 1.122 0 1.201-.986 1.802-2.958 1.802-.93 0-1.847-.125-2.754-.374a18.91 18.91 0 0 1-2.465-.85 13.234 13.234 0 0 1-1.853-.952c-.498-.317-.793-.533-.884-.646L.531 22.28c.703.476 1.468.895 2.295 1.258.828.363 1.683.674 2.567.935a19.674 19.674 0 0 0 5.44.799c1.156 0 2.278-.13 3.366-.391 1.088-.26 2.052-.68 2.89-1.258a6.449 6.449 0 0 0 2.023-2.278c.51-.94.765-2.091.765-3.451 0-1.11-.175-2.063-.527-2.856a5.648 5.648 0 0 0-1.496-2.023c-.646-.555-1.433-1.02-2.363-1.394-.93-.374-1.972-.72-3.128-1.037l-.804-.22-1.406-.392c-.634-.181-1.161-.38-1.58-.595-.42-.215-.737-.46-.953-.731-.215-.272-.323-.612-.323-1.02 0-1.337.998-2.006 2.992-2.006.726 0 1.45.102 2.176.306.726.204 1.394.442 2.006.714.612.272 1.122.533 1.53.782ZM52.48 25.34c-1.518 0-2.873-.25-4.063-.748-1.19-.499-2.192-1.173-3.008-2.023a8.54 8.54 0 0 1-1.854-2.958 9.968 9.968 0 0 1-.629-3.52c0-1.223.21-2.396.63-3.518a8.54 8.54 0 0 1 1.852-2.958c.817-.85 1.82-1.53 3.01-2.04 1.19-.51 2.544-.765 4.063-.765 1.518 0 2.867.255 4.046.765 1.178.51 2.175 1.19 2.991 2.04a8.754 8.754 0 0 1 1.87 2.958 9.738 9.738 0 0 1 .646 3.519 9.97 9.97 0 0 1-.629 3.519 8.542 8.542 0 0 1-1.853 2.958c-.816.85-1.819 1.524-3.009 2.023-1.19.499-2.544.748-4.063.748Zm-2.855-5.865c-.748-.85-1.123-1.978-1.123-3.383 0-.68.102-1.31.306-1.887a4.568 4.568 0 0 1 .834-1.48 3.702 3.702 0 0 1 2.839-1.291c1.133 0 2.074.425 2.822 1.275.748.85 1.121 1.978 1.121 3.383 0 .68-.102 1.309-.306 1.887a4.57 4.57 0 0 1-.832 1.479 3.752 3.752 0 0 1-1.241.952 3.59 3.59 0 0 1-1.564.34c-1.156 0-2.108-.425-2.856-1.275Zm26.654-7.667c-1.315.023-2.505.238-3.57.646-1.066.408-1.836 1.02-2.312 1.836V25h-5.44V7.15h4.998v3.604c.612-1.201 1.4-2.142 2.363-2.822.963-.68 1.989-1.031 3.077-1.054h.544c.113 0 .226.011.34.034v4.896Zm11.507 13.124a21.7 21.7 0 0 0 2.567-.884l-1.054-4.318a7.717 7.717 0 0 1-1.122.442c-.431.136-.85.204-1.258.204-.454 0-.828-.13-1.122-.391-.295-.26-.442-.686-.442-1.275v-7.446h3.638V7.15h-3.638V1.472h-5.44V7.15h-2.278v4.114h2.278v9.316c0 .861.13 1.598.39 2.21.261.612.618 1.105 1.072 1.479.453.374.98.646 1.58.816.601.17 1.242.255 1.922.255.974 0 1.943-.136 2.907-.408ZM92.628.18h5.44v18.462c0 1.36.578 2.04 1.734 2.04.272 0 .572-.04.901-.12.328-.078.629-.197.901-.356l.714 4.08c-.68.317-1.462.567-2.346.748-.884.181-1.712.272-2.482.272-1.564 0-2.765-.408-3.604-1.224-.839-.816-1.258-1.995-1.258-3.536V.18Zm12.731 27.846a7.927 7.927 0 0 1-1.275-.34v4.658c.476.181.946.312 1.411.39.465.08.924.12 1.377.12 1.677 0 3.128-.46 4.352-1.377a7.106 7.106 0 0 0 2.55-3.587l6.8-20.74h-5.1l-3.57 13.192-4.148-13.192h-5.61l6.8 17.85c-.295 1.179-.623 1.995-.986 2.448-.363.453-.873.68-1.53.68-.317 0-.674-.034-1.071-.102Z" clip-rule="evenodd"/></svg>